<?xml version="1.0" encoding="UTF-8"?>
<svg width="512" height="512" viewBox="0 0 512 512" fill="none" xmlns="http://www.w3.org/2000/svg">
  <rect width="512" height="512" fill="#1A0B3D"/>
  <path d="M256 128C238.327 128 224 142.327 224 160C224 177.673 238.327 192 256 192C273.673 192 288 177.673 288 160C288 142.327 273.673 128 256 128Z" fill="#C2185B"/>
  <path d="M368 224H144C135.163 224 128 231.163 128 240V368C128 376.837 135.163 384 144 384H368C376.837 384 384 376.837 384 368V240C384 231.163 376.837 224 368 224ZM144 368V240H368L368.002 368H144Z" fill="#C2185B"/>
  <path d="M304 288L272 256L208 320L176 288L144 320V352L176 320L208 352L272 288L304 320L336 288V256L304 288Z" fill="#C2185B"/>
  <path d="M256 64C150.131 64 64 150.131 64 256C64 361.869 150.131 448 256 448C361.869 448 448 361.869 448 256C448 150.131 361.869 64 256 64ZM256 432C158.953 432 80 353.047 80 256C80 158.953 158.953 80 256 80C353.047 80 432 158.953 432 256C432 353.047 353.047 432 256 432Z" fill="#C2185B"/>
  <path d="M368 160H336V128H320V160H288V176H320V208H336V176H368V160Z" fill="#C2185B"/>
  <line x1="106" y1="106" x2="406" y2="406" stroke="#C2185B" stroke-width="16" stroke-linecap="round"/>
</svg>